<svg width="205" height="335" viewBox="0 0 205 335" fill="none" xmlns="http://www.w3.org/2000/svg">
<path d="M159.647 251.852C180.926 270.892 197.195 300.249 205 335L-2.92866e-05 335C7.80495 300.249 24.0744 270.892 45.3526 251.852L159.647 251.852Z" fill="white"/>
<path d="M85.227 37.9125L102.272 20.378L119.318 38.3864L102.272 54.9731L85.227 37.9125Z" fill="white"/>
<path d="M94.6966 7.58251L102.272 8.94093e-06L110.322 7.58251L102.272 15.6389L94.6966 7.58251Z" fill="white"/>
<path d="M119.318 38.3864L138.731 20.378L138.731 54.9731L119.318 38.3864Z" fill="white"/>
<path d="M85.227 37.9125L65.8142 54.9731L65.8142 20.378L85.227 37.9125Z" fill="white"/>
<path d="M65.8142 54.9731L138.731 54.9731L138.731 83.6153L65.8141 83.6153L65.8142 54.9731Z" fill="white"/>
<path d="M48.7687 246.639C68.9466 226.291 81.4232 198.203 81.4232 167.183C81.4232 149.816 77.5128 133.369 70.5298 118.684L134.351 118.684C127.368 133.369 123.457 149.816 123.457 167.183C123.457 198.203 135.934 226.291 156.112 246.639L48.7687 246.639Z" fill="white"/>
<path d="M67.8094 113.471L136.867 113.471C141.547 104.477 147.325 96.1973 154.014 88.8283L50.6627 88.8283C57.3509 96.1973 63.1291 104.477 67.8094 113.471Z" fill="white"/>
</svg>
