<svg width="183" height="335" viewBox="0 0 183 335" fill="none" xmlns="http://www.w3.org/2000/svg">
<path d="M142.515 260.095C161.509 277.247 176.033 303.694 183 335L-2.43035e-05 335C6.9673 303.694 21.4907 277.247 40.4853 260.095L142.515 260.095Z" fill="white"/>
<path d="M46.9193 254.565C63.7394 237.537 74.1397 214.032 74.1397 188.072C74.1397 173.539 70.88 159.775 65.059 147.486L118.26 147.486C112.439 159.775 109.179 173.539 109.179 188.072C109.179 214.032 119.58 237.537 136.4 254.565L46.9193 254.565Z" fill="white"/>
<path d="M100.959 66.2987C100.959 71.4342 96.7954 75.5974 91.6596 75.5974C86.5238 75.5974 82.3603 71.4342 82.3603 66.2987C82.3603 61.1632 86.5238 57 91.6596 57C96.7954 57 100.959 61.1632 100.959 66.2987Z" fill="white"/>
<path d="M53.9491 118.595C53.9491 127.43 56.9918 135.551 62.0814 141.956L120.374 141.956C125.463 135.551 128.506 127.43 128.506 118.595C128.506 118.595 128.506 97.8775 91.2276 81.1275C53.9491 97.4367 53.9491 118.403 53.9491 118.595Z" fill="white"/>
</svg>
