<svg width="156" height="335" viewBox="0 0 156 335" fill="none" xmlns="http://www.w3.org/2000/svg">
<path d="M123.028 260.596L14.3059 260.596L77.2953 137.291L-2.98864e-05 137.291L-3.27348e-05 104.71L79.4851 67.0694C104.944 76.7579 123.028 101.34 123.028 130.134L123.028 260.596Z" fill="white"/>
<path d="M129.199 260.596L129.199 130.134C129.199 100.727 111.913 75.3465 86.9225 63.5474L100.749 57C124.917 69.0976 141.503 94.0403 141.503 122.847L141.503 260.596L129.199 260.596Z" fill="white"/>
<path d="M156 296.959L2.30339 296.959C18.3129 290.436 32.3955 279.981 43.428 266.749L114.875 266.749C125.908 279.981 139.99 290.436 156 296.959Z" fill="white"/>
<path d="M156 303.112L2.30397 303.112L2.30398 335L156 335L156 303.112Z" fill="white"/>
</svg>
