<svg width="139" height="335" viewBox="0 0 139 335" fill="none" xmlns="http://www.w3.org/2000/svg">
<path d="M98.2305 133.615C98.2305 149.972 84.9378 163.231 68.5404 163.231C52.1431 163.231 38.8504 149.972 38.8504 133.615C38.8504 117.259 52.1431 104 68.5404 104C84.9378 104 98.2305 117.259 98.2305 133.615Z" fill="white"/>
<path d="M99.1874 290.906H38.6367C30.218 307.732 16.9045 322.756 0 335H139C121.666 322.838 107.948 307.804 99.1874 290.906Z" fill="white"/>
<path d="M107.014 170.47H30.7259C43.4677 189.959 50.7258 212.399 50.7258 236.282C50.7258 252.951 47.1904 268.917 40.7227 283.667H97.0168C90.5491 268.917 87.0137 252.951 87.0137 236.282C87.0137 212.399 94.2718 189.959 107.014 170.47Z" fill="white"/>
</svg>
