<svg width="182" height="335" viewBox="0 0 182 335" fill="none" xmlns="http://www.w3.org/2000/svg">
<path d="M102.917 26.0835C102.917 32.757 97.4823 38.1669 90.7781 38.1669C84.074 38.1669 78.6392 32.757 78.6392 26.0835C78.6392 19.41 84.074 14 90.7781 14C97.4823 14 102.917 19.41 102.917 26.0835Z" fill="white"/>
<path d="M53.3057 63.9099L128.376 63.9099C119.22 51.6704 105.798 43.946 90.8409 43.946C75.8838 43.946 62.4619 51.6703 53.3057 63.9099Z" fill="white"/>
<path d="M147.649 69.689L34.3056 69.689C42.2551 77.9229 49.2181 87.0907 55.0079 97.0082L126.947 97.0082C132.737 87.0907 139.7 77.923 147.649 69.689Z" fill="white"/>
<path d="M123.578 102.787L57.9387 102.787C68.2114 122.589 74.0124 145.061 74.0124 168.883C74.0124 201.462 63.1618 231.519 44.8612 255.669L136.656 255.669C118.355 231.519 107.504 201.462 107.504 168.883C107.504 145.061 113.305 122.589 123.578 102.787Z" fill="white"/>
<path d="M141.736 261.448C160.627 278.291 175.071 304.26 182 335L-2.80627e-05 335C6.92914 304.26 21.3731 278.291 40.2637 261.448L141.736 261.448Z" fill="white"/>
</svg>
