<svg width="171" height="335" viewBox="0 0 171 335" fill="none" xmlns="http://www.w3.org/2000/svg">
<path d="M153.1 104L17.5095 104C27.0193 114.671 35.349 126.552 42.2751 139.405L128.334 139.405C135.261 126.552 143.59 114.671 153.1 104Z" fill="white"/>
<path d="M-1.6126e-05 288.46C30.6539 266.511 50.8441 229.075 50.8441 186.582C50.8441 172.478 48.6199 158.932 44.5271 146.323L126.472 146.323C122.38 158.932 120.155 172.478 120.155 186.582C120.155 229.075 140.345 266.511 170.999 288.46L-1.6126e-05 288.46Z" fill="white"/>
<path d="M0.000759025 295.378L171 295.378L171 335L0.000755562 335L0.000759025 295.378Z" fill="white"/>
</svg>
